<svg width="35" height="35" viewBox="0 0 35 35" fill="none" xmlns="http://www.w3.org/2000/svg">
<path fill-rule="evenodd" clip-rule="evenodd" d="M4.6377 15.9608H7.18949V15.6546V10.5721C7.18949 7.66536 8.37923 5.02242 10.2936 3.1075V3.10494C12.2088 1.18974 14.8523 0 17.761 0C20.6674 0 23.3103 1.18974 25.2255 3.10494L25.2284 3.1075C27.1427 5.02242 28.3325 7.66536 28.3325 10.5721V15.6546V15.9608H30.365C30.8179 15.9608 31.1888 16.3316 31.1888 16.7842V34.1766C31.1888 34.6292 30.8179 35 30.365 35H4.6377C4.18481 35 3.81396 34.6292 3.81396 34.1766V16.7842C3.81396 16.3316 4.18481 15.9608 4.6377 15.9608ZM11.2968 15.9608H24.2244V15.6546V10.5134C24.2244 8.73604 23.4969 7.11906 22.3268 5.94755L22.3254 5.94869C21.1545 4.7769 19.5378 4.04915 17.761 4.04915C15.9834 4.04915 14.3667 4.77661 13.1943 5.94755C12.0239 7.11906 11.2968 8.73604 11.2968 10.5134V15.6549V15.9608ZM17.8131 25.4775L19.1179 31.4986L15.5413 31.5137L16.5909 25.4117C15.6136 25.0984 14.9053 24.1827 14.9053 23.1015C14.9053 21.7625 15.9905 20.6773 17.33 20.6773C18.6682 20.6773 19.7542 21.7625 19.7542 23.1015C19.7542 24.275 18.9202 25.2539 17.8131 25.4775Z" fill="white"/>
</svg>
